<?xml version="1.0" encoding="UTF-8" standalone="no"?>
<!DOCTYPE svg PUBLIC "-//W3C//DTD SVG 1.1//EN"
 "http://www.w3.org/Graphics/SVG/1.1/DTD/svg11.dtd">
<!-- Generated by graphviz version 5.0.1 (0)
 -->
<!-- Pages: 1 -->
<svg width="462pt" height="144pt"
 viewBox="0.00 0.00 462.08 144.00" xmlns="http://www.w3.org/2000/svg" xmlns:xlink="http://www.w3.org/1999/xlink">
<g id="graph0" class="graph" transform="scale(1 1) rotate(0) translate(4 140)">
<polygon fill="white" stroke="none" points="-4,4 -4,-140 458.08,-140 458.08,4 -4,4"/>
<!-- ray -->
<g id="node1" class="node">
<title>ray</title>
<ellipse fill="none" stroke="black" cx="27" cy="-64" rx="27" ry="18"/>
<text text-anchor="middle" x="27" y="-60.3" font-family="Times,serif" font-size="14.00">ray</text>
</g>
<!-- rop -->
<g id="node2" class="node">
<title>rop</title>
<ellipse fill="none" stroke="black" cx="128.35" cy="-118" rx="27" ry="18"/>
<text text-anchor="middle" x="128.35" y="-114.3" font-family="Times,serif" font-size="14.00">rop</text>
</g>
<!-- ray&#45;&gt;rop -->
<g id="edge1" class="edge">
<title>ray&#45;&gt;rop</title>
<path fill="none" stroke="black" d="M48.58,-75.19C62.84,-82.94 82.02,-93.36 97.89,-101.99"/>
<polygon fill="black" stroke="black" points="96.33,-105.12 106.79,-106.83 99.67,-98.97 96.33,-105.12"/>
</g>
<!-- bun -->
<g id="node3" class="node">
<title>bun</title>
<ellipse fill="none" stroke="black" cx="231.29" cy="-18" rx="28.7" ry="18"/>
<text text-anchor="middle" x="231.29" y="-14.3" font-family="Times,serif" font-size="14.00">bun</text>
</g>
<!-- ray&#45;&gt;bun -->
<g id="edge2" class="edge">
<title>ray&#45;&gt;bun</title>
<path fill="none" stroke="black" d="M48.71,-53.27C60.51,-47.59 75.75,-40.98 90,-37 124.05,-27.48 164.12,-22.66 192.7,-20.26"/>
<polygon fill="black" stroke="black" points="192.98,-23.75 202.68,-19.49 192.44,-16.77 192.98,-23.75"/>
</g>
<!-- nshape -->
<g id="node4" class="node">
<title>nshape</title>
<ellipse fill="none" stroke="black" cx="128.35" cy="-64" rx="38.19" ry="18"/>
<text text-anchor="middle" x="128.35" y="-60.3" font-family="Times,serif" font-size="14.00">shape</text>
</g>
<!-- ray&#45;&gt;nshape -->
<g id="edge3" class="edge">
<title>ray&#45;&gt;nshape</title>
<path fill="none" stroke="black" d="M54.1,-64C61.95,-64 70.83,-64 79.62,-64"/>
<polygon fill="black" stroke="black" points="79.84,-67.5 89.84,-64 79.84,-60.5 79.84,-67.5"/>
</g>
<!-- lpart -->
<g id="node5" class="node">
<title>lpart</title>
<polygon fill="none" stroke="black" points="204.29,-54.5 204.29,-123.5 258.29,-123.5 258.29,-54.5 204.29,-54.5"/>
<text text-anchor="middle" x="231.29" y="-108.3" font-family="Times,serif" font-size="14.00">lpart</text>
<polyline fill="none" stroke="black" points="204.29,-100.5 258.29,-100.5"/>
<text text-anchor="middle" x="231.29" y="-85.3" font-family="Times,serif" font-size="14.00">surf</text>
<polyline fill="none" stroke="black" points="204.29,-77.5 258.29,-77.5"/>
<text text-anchor="middle" x="231.29" y="-62.3" font-family="Times,serif" font-size="14.00">tfr</text>
</g>
<!-- rop&#45;&gt;lpart -->
<g id="edge4" class="edge">
<title>rop&#45;&gt;lpart</title>
<path fill="none" stroke="black" d="M153.53,-111.05C165.7,-107.56 180.71,-103.24 194.22,-99.36"/>
<polygon fill="black" stroke="black" points="195.54,-102.62 204.19,-96.5 193.61,-95.9 195.54,-102.62"/>
</g>
<!-- ltrac -->
<g id="node7" class="node">
<title>ltrac</title>
<ellipse fill="none" stroke="black" cx="421.58" cy="-53" rx="32.49" ry="18"/>
<text text-anchor="middle" x="421.58" y="-49.3" font-family="Times,serif" font-size="14.00">ltrac</text>
</g>
<!-- bun&#45;&gt;ltrac -->
<g id="edge7" class="edge">
<title>bun&#45;&gt;ltrac</title>
<path fill="none" stroke="black" d="M258.87,-22.94C290.56,-28.83 343.84,-38.73 380.52,-45.55"/>
<polygon fill="black" stroke="black" points="379.93,-49 390.4,-47.39 381.21,-42.12 379.93,-49"/>
</g>
<!-- nshape&#45;&gt;lpart -->
<g id="edge5" class="edge">
<title>nshape&#45;&gt;lpart</title>
<path fill="none" stroke="black" d="M162.68,-72.26C172.76,-74.75 183.87,-77.5 194.13,-80.04"/>
<polygon fill="black" stroke="black" points="193.47,-83.49 204.02,-82.49 195.16,-76.69 193.47,-83.49"/>
</g>
<!-- lsys -->
<g id="node6" class="node">
<title>lsys</title>
<ellipse fill="none" stroke="black" cx="324.49" cy="-82" rx="28.7" ry="18"/>
<text text-anchor="middle" x="324.49" y="-78.3" font-family="Times,serif" font-size="14.00">lsys</text>
</g>
<!-- lpart&#45;&gt;lsys -->
<g id="edge6" class="edge">
<title>lpart&#45;&gt;lsys</title>
<path fill="none" stroke="black" d="M258.67,-86.98C267.15,-86.32 276.72,-85.59 285.86,-84.89"/>
<polygon fill="black" stroke="black" points="286.2,-88.37 295.9,-84.12 285.66,-81.39 286.2,-88.37"/>
</g>
<!-- lsys&#45;&gt;ltrac -->
<g id="edge8" class="edge">
<title>lsys&#45;&gt;ltrac</title>
<path fill="none" stroke="black" d="M350.47,-74.38C360.41,-71.35 372.07,-67.79 382.99,-64.46"/>
<polygon fill="black" stroke="black" points="384.2,-67.75 392.75,-61.49 382.16,-61.06 384.2,-67.75"/>
</g>
</g>
</svg>
