<?xml version="1.0" encoding="UTF-8" standalone="no"?>
<!DOCTYPE svg PUBLIC "-//W3C//DTD SVG 1.1//EN"
 "http://www.w3.org/Graphics/SVG/1.1/DTD/svg11.dtd">
<!-- Generated by graphviz version 7.1.0 (0)
 -->
<!-- Pages: 1 -->
<svg width="516pt" height="144pt"
 viewBox="0.00 0.00 515.88 144.00" xmlns="http://www.w3.org/2000/svg" xmlns:xlink="http://www.w3.org/1999/xlink">
<g id="graph0" class="graph" transform="scale(1 1) rotate(0) translate(4 140)">
<polygon fill="white" stroke="none" points="-4,4 -4,-140 511.88,-140 511.88,4 -4,4"/>
<!-- ray -->
<g id="node1" class="node">
<title>ray</title>
<ellipse fill="none" stroke="black" cx="27" cy="-64" rx="27" ry="18"/>
<text text-anchor="middle" x="27" y="-60.3" font-family="Times,serif" font-size="14.00">ray</text>
</g>
<!-- rop -->
<g id="node2" class="node">
<title>rop</title>
<ellipse fill="none" stroke="black" cx="128.35" cy="-118" rx="27" ry="18"/>
<text text-anchor="middle" x="128.35" y="-114.3" font-family="Times,serif" font-size="14.00">rop</text>
</g>
<!-- ray&#45;&gt;rop -->
<g id="edge1" class="edge">
<title>ray&#45;&gt;rop</title>
<path fill="none" stroke="black" d="M48.58,-75.19C62.57,-82.79 81.31,-92.98 97,-101.5"/>
<polygon fill="black" stroke="black" points="95,-104.4 105.46,-106.1 98.34,-98.25 95,-104.4"/>
</g>
<!-- bun -->
<g id="node3" class="node">
<title>bun</title>
<ellipse fill="none" stroke="black" cx="258.19" cy="-18" rx="28.7" ry="18"/>
<text text-anchor="middle" x="258.19" y="-14.3" font-family="Times,serif" font-size="14.00">bun</text>
</g>
<!-- ray&#45;&gt;bun -->
<g id="edge2" class="edge">
<title>ray&#45;&gt;bun</title>
<path fill="none" stroke="black" d="M48.95,-53.01C60.71,-47.33 75.83,-40.8 90,-37 132.78,-25.53 183.54,-20.98 217.81,-19.18"/>
<polygon fill="black" stroke="black" points="217.87,-22.68 227.7,-18.72 217.55,-15.69 217.87,-22.68"/>
</g>
<!-- nshape -->
<g id="node4" class="node">
<title>nshape</title>
<ellipse fill="none" stroke="black" cx="128.35" cy="-64" rx="38.19" ry="18"/>
<text text-anchor="middle" x="128.35" y="-60.3" font-family="Times,serif" font-size="14.00">shape</text>
</g>
<!-- ray&#45;&gt;nshape -->
<g id="edge3" class="edge">
<title>ray&#45;&gt;nshape</title>
<path fill="none" stroke="black" d="M54.36,-64C61.87,-64 70.3,-64 78.69,-64"/>
<polygon fill="black" stroke="black" points="78.5,-67.5 88.5,-64 78.5,-60.5 78.5,-67.5"/>
</g>
<!-- lpart -->
<g id="node5" class="node">
<title>lpart</title>
<polygon fill="none" stroke="black" points="202.69,-54.5 202.69,-123.5 313.69,-123.5 313.69,-54.5 202.69,-54.5"/>
<text text-anchor="middle" x="258.19" y="-108.3" font-family="Times,serif" font-size="14.00">lpart</text>
<polyline fill="none" stroke="black" points="202.69,-100.5 313.69,-100.5"/>
<text text-anchor="middle" x="258.19" y="-85.3" font-family="Times,serif" font-size="14.00">shape_part</text>
<polyline fill="none" stroke="black" points="202.69,-77.5 313.69,-77.5"/>
<text text-anchor="middle" x="258.19" y="-62.3" font-family="Times,serif" font-size="14.00">transfer_part</text>
</g>
<!-- rop&#45;&gt;lpart -->
<g id="edge4" class="edge">
<title>rop&#45;&gt;lpart</title>
<path fill="none" stroke="black" d="M154.3,-112.34C165.14,-109.88 178.41,-106.87 191.76,-103.84"/>
<polygon fill="black" stroke="black" points="192.49,-107.27 201.46,-101.64 190.94,-100.44 192.49,-107.27"/>
</g>
<!-- ltrac -->
<g id="node7" class="node">
<title>ltrac</title>
<ellipse fill="none" stroke="black" cx="475.39" cy="-53" rx="32.49" ry="18"/>
<text text-anchor="middle" x="475.39" y="-49.3" font-family="Times,serif" font-size="14.00">ltrac</text>
</g>
<!-- bun&#45;&gt;ltrac -->
<g id="edge7" class="edge">
<title>bun&#45;&gt;ltrac</title>
<path fill="none" stroke="black" d="M286.45,-22.43C323.33,-28.43 389.47,-39.19 432.64,-46.21"/>
<polygon fill="black" stroke="black" points="431.96,-49.65 442.39,-47.8 433.09,-42.74 431.96,-49.65"/>
</g>
<!-- nshape&#45;&gt;lpart -->
<g id="edge5" class="edge">
<title>nshape&#45;&gt;lpart</title>
<path fill="none" stroke="black" d="M164.28,-70.83C172.89,-72.51 182.39,-74.37 191.93,-76.24"/>
<polygon fill="black" stroke="black" points="191.12,-79.65 201.61,-78.13 192.46,-72.78 191.12,-79.65"/>
</g>
<!-- lsys -->
<g id="node6" class="node">
<title>lsys</title>
<ellipse fill="none" stroke="black" cx="378.29" cy="-82" rx="28.7" ry="18"/>
<text text-anchor="middle" x="378.29" y="-78.3" font-family="Times,serif" font-size="14.00">lsys</text>
</g>
<!-- lpart&#45;&gt;lsys -->
<g id="edge6" class="edge">
<title>lpart&#45;&gt;lsys</title>
<path fill="none" stroke="black" d="M313.4,-85.79C321.7,-85.3 330.12,-84.8 338.01,-84.33"/>
<polygon fill="black" stroke="black" points="338.21,-87.82 347.98,-83.74 337.79,-80.84 338.21,-87.82"/>
</g>
<!-- lsys&#45;&gt;ltrac -->
<g id="edge8" class="edge">
<title>lsys&#45;&gt;ltrac</title>
<path fill="none" stroke="black" d="M404.77,-74.23C414.23,-71.35 425.18,-68.01 435.55,-64.84"/>
<polygon fill="black" stroke="black" points="436.5,-68.21 445.04,-61.95 434.46,-61.52 436.5,-68.21"/>
</g>
</g>
</svg>
